<?xml version="1.0" encoding="UTF-8"?>
<svg version="1.1" xmlns="http://www.w3.org/2000/svg" width="1080" height="1080">
<path d="M0 0 C54.0508151 -1.45029245 107.4566918 10.43750898 156.80224609 32.07080078 C158.20095947 32.6832666 158.20095947 32.6832666 159.62792969 33.30810547 C193.39962754 48.30001351 225.26003577 69.47307018 252.80224609 94.07080078 C253.66849609 94.83779297 254.53474609 95.60478516 255.42724609 96.39501953 C257.90133251 98.60345885 260.35210361 100.83584801 262.80224609 103.07080078 C263.77291016 103.93705078 264.74357422 104.80330078 265.74365234 105.69580078 C283.56740907 121.7160952 299.51741952 139.84942083 313.80224609 159.07080078 C314.28773926 159.71968262 314.77323242 160.36856445 315.2734375 161.03710938 C364.06420775 226.47613362 394.1824791 303.97011484 405.11474609 384.69580078 C405.26194092 385.78151367 405.40913574 386.86722656 405.56079102 387.98583984 C408.24527629 409.29207636 409.18053319 430.54566777 409.11474609 452.00830078 C409.11201187 453.87275345 409.11201187 453.87275345 409.10922241 455.77487183 C409.06021484 475.70115837 408.40957006 495.30855699 405.80224609 515.07080078 C405.71738953 515.72300598 405.63253296 516.37521118 405.54510498 517.04718018 C401.58532084 547.3013285 395.18548141 577.02246794 385.80224609 606.07080078 C385.28041748 607.68994385 385.28041748 607.68994385 384.74804688 609.34179688 C373.34840377 644.30244147 357.96921347 677.69958304 338.80224609 709.07080078 C338.01503174 710.37017578 338.01503174 710.37017578 337.21191406 711.69580078 C330.75470696 722.31914626 323.83033291 732.42530102 316.21191406 742.24804688 C314.86603396 743.98832067 313.53653399 745.73972763 312.21240234 747.49658203 C292.92613573 773.00885596 292.92613573 773.00885596 284.80224609 777.07080078 C279.12636234 777.66109269 274.61348733 777.38521141 269.80224609 774.07080078 C265.29891076 769.47810423 261.88217707 764.29021538 258.55224609 758.82080078 C253.4322258 750.55695203 248.09439795 742.45356927 242.67724609 734.38330078 C237.54412468 726.7279728 232.46033928 719.05743962 227.63110352 711.20581055 C223.69757963 704.8369714 219.59372388 698.58066351 215.48974609 692.32080078 C214.93738785 691.47819199 214.93738785 691.47819199 214.37387085 690.61856079 C212.5390896 687.82011598 210.70371938 685.02205827 208.86816406 682.22412109 C205.91847013 677.72184659 202.98354169 673.21006821 200.05224609 668.69580078 C199.53533203 667.90012695 199.01841797 667.10445312 198.48583984 666.28466797 C195.21512982 661.24917158 191.94771129 656.21154309 188.68041992 651.17382812 C187.03963045 648.64760468 185.39400054 646.12459268 183.74755859 643.60205078 C181.94889111 640.84478443 180.17016304 638.07747076 178.41943359 635.28955078 C177.74138672 634.22736328 177.06333984 633.16517578 176.36474609 632.07080078 C175.80916016 631.18392578 175.25357422 630.29705078 174.68115234 629.38330078 C171.90039689 625.96083254 168.81141327 623.52621201 164.45849609 622.53955078 C163.74693359 622.54986328 163.03537109 622.56017578 162.30224609 622.57080078 C161.59068359 622.56048828 160.87912109 622.55017578 160.14599609 622.53955078 C153.43620119 624.06043763 150.01736629 629.01321031 146.42724609 634.38330078 C145.92467285 635.11460205 145.42209961 635.84590332 144.90429688 636.59936523 C143.79777152 638.20972202 142.6955938 639.82307251 141.59716797 641.43896484 C137.64553374 647.23311841 133.61857121 652.97569665 129.60571289 658.72753906 C126.64678008 662.97108868 123.69478167 667.2165096 120.80615234 671.50830078 C119.95072846 672.75833148 119.09526367 674.0083342 118.23974609 675.25830078 C117.53720703 676.30373047 116.83466797 677.34916016 116.11083984 678.42626953 C112.84225967 682.17048066 109.34729244 684.50890743 104.39599609 685.60205078 C97.6946968 685.50203139 93.42796041 683.68198163 88.68505859 678.96533203 C84.79254392 674.72936019 81.16255303 670.29731689 77.55224609 665.82080078 C73.45272689 660.74657072 69.06853747 656.00849748 64.60009766 651.26318359 C60.5790977 646.96989175 56.85242155 642.5085201 53.17724609 637.91455078 C50.33760059 634.51444893 47.33835239 631.29494979 44.30224609 628.07080078 C39.67929651 623.1611978 35.33623431 618.12601535 31.11865234 612.85986328 C27.44238113 608.43345915 23.49798237 604.26278966 19.57568359 600.05517578 C15.27119096 595.43726317 11.15912204 590.66318472 7.06396484 585.85986328 C1.4899742 579.32704191 -4.13154601 572.86689686 -9.94775391 566.54736328 C-12.02323521 564.26289254 -14.02029978 561.92958261 -16.01025391 559.57080078 C-19.08586856 556.08843431 -21.50578817 553.46682554 -26.29541016 552.76220703 C-31.88828392 552.45408544 -34.77255407 553.38501571 -39.19775391 557.07080078 C-41.33605061 560.00369678 -43.03987 563.12911706 -44.76025391 566.32080078 C-45.27273682 567.24393066 -45.78521973 568.16706055 -46.31323242 569.11816406 C-47.95841701 572.09340772 -49.58062738 575.08022433 -51.19775391 578.07080078 C-51.99391113 579.53694824 -51.99391113 579.53694824 -52.80615234 581.03271484 C-54.96690876 585.01319422 -57.12389778 588.99562673 -59.27026367 592.98388672 C-62.99476878 599.89584178 -66.81394055 606.74723767 -70.69775391 613.57080078 C-75.76149827 622.47055306 -80.68086632 631.44012847 -85.5402832 640.45288086 C-88.66216838 646.24124874 -91.80731544 652.01438239 -95.01025391 657.75830078 C-99.36051627 665.56148224 -103.69194835 673.37489772 -108.01025391 681.19580078 C-108.35445374 681.81903229 -108.69865356 682.44226379 -109.05328369 683.0843811 C-114.25023975 692.49803087 -119.38224874 701.94503672 -124.4831543 711.41113281 C-128.05306416 718.01450419 -131.7254051 724.55238874 -135.44775391 731.07080078 C-141.50934032 741.70041805 -147.24899248 752.48898934 -152.96582031 763.30615234 C-153.6876018 764.67174446 -154.40944352 766.03730474 -155.13134766 767.40283203 C-155.48287903 768.06777679 -155.8344104 768.73272156 -156.19659424 769.41781616 C-159.64818594 775.93774828 -163.1781737 782.41360297 -166.7277832 788.88061523 C-169.5342932 794.00108767 -172.30965394 799.1371692 -175.05712891 804.28955078 C-175.39014008 804.91359802 -175.72315125 805.53764526 -176.06625366 806.18060303 C-177.69703548 809.23756127 -179.32488471 812.29602655 -180.94824219 815.35693359 C-183.69593203 820.51322083 -186.47104796 825.6514791 -189.39306641 830.71142578 C-189.83924316 831.48518555 -190.28541992 832.25894531 -190.74511719 833.05615234 C-192.35238617 835.28525884 -193.86857453 836.62171604 -196.19775391 838.07080078 C-203.94893735 839.00628844 -209.26437515 834.11799927 -215.08544922 829.60839844 C-219.22265673 826.33083096 -223.29229252 822.97428081 -227.34960938 819.59863281 C-229.79410834 817.57780394 -232.28042146 815.61051443 -234.76025391 813.63330078 C-245.31444659 804.96378536 -255.02685501 795.32491614 -264.69775391 785.69580078 C-265.80969116 784.5908728 -265.80969116 784.5908728 -266.9440918 783.46362305 C-271.56601567 778.82811603 -275.94368992 774.04460144 -280.19775391 769.07080078 C-281.08686523 768.04978315 -281.97617216 767.02893581 -282.86572266 766.00830078 C-290.03983325 757.64406641 -296.70748867 748.97395209 -303.19775391 740.07080078 C-303.68888672 739.40064941 -304.18001953 738.73049805 -304.68603516 738.04003906 C-318.11004553 719.6528639 -329.60536359 700.20464873 -340.19775391 680.07080078 C-340.65359863 679.21502441 -341.10944336 678.35924805 -341.57910156 677.47753906 C-369.95365247 623.96511687 -385.74694132 564.0793377 -392.19775391 504.07080078 C-392.31489746 502.99717285 -392.43204102 501.92354492 -392.55273438 500.81738281 C-395.93550182 468.0804372 -395.83269874 433.77638415 -392.19775391 401.07080078 C-392.12470032 400.40336853 -392.05164673 399.73593628 -391.97637939 399.04827881 C-385.99888289 344.85055223 -371.99929957 292.67734894 -349.19775391 243.07080078 C-348.45125635 241.41343052 -347.70513946 239.75588873 -346.95947266 238.09814453 C-329.70733645 200.23230045 -305.65694635 165.22909551 -278.19775391 134.07080078 C-277.24860107 132.98810913 -277.24860107 132.98810913 -276.28027344 131.88354492 C-270.41056657 125.26626214 -264.26754663 118.95438586 -258.01464844 112.70239258 C-256.32667536 111.01222732 -254.64689666 109.31419244 -252.96728516 107.61572266 C-246.35332622 100.96793474 -239.5596012 94.89199347 -232.19775391 89.07080078 C-231.16989849 88.2077761 -230.14647402 87.33938752 -229.13134766 86.46142578 C-165.69368825 32.05792445 -82.99461893 2.6736769 0 0 Z " fill="#B1A9E5" transform="translate(539.19775390625,67.92919921875)"/>
<path d="M0 0 C7.45870845 5.23935641 12.88012394 11.53797393 14.63671875 20.64453125 C14.63671875 22.62453125 14.63671875 24.60453125 14.63671875 26.64453125 C9.35671875 26.64453125 4.07671875 26.64453125 -1.36328125 26.64453125 C-1.92015625 25.26265625 -2.47703125 23.88078125 -3.05078125 22.45703125 C-5.66305487 16.63878547 -9.00884228 12.499486 -15.1484375 10.1484375 C-22.03398925 8.5818834 -30.13862727 8.60217692 -36.65234375 11.54296875 C-42.54861263 15.33919666 -45.58125335 20.96930672 -47.36328125 27.64453125 C-47.78552304 30.94827412 -47.84097708 34.1918233 -47.80078125 37.51953125 C-47.79248291 38.40141113 -47.78418457 39.28329102 -47.77563477 40.19189453 C-47.58337818 47.59069429 -46.75303905 53.75410704 -41.75 59.49609375 C-35.59197074 65.25815217 -28.91941626 66.1862739 -20.69140625 66.0078125 C-15.47149931 65.43803393 -11.40529073 64.04674407 -7.36328125 60.64453125 C-4.55902078 56.57738211 -2.91665303 52.30464658 -1.36328125 47.64453125 C3.91671875 47.64453125 9.19671875 47.64453125 14.63671875 47.64453125 C14.63671875 57.26862125 12.20596628 63.89273724 5.54296875 70.89453125 C-4.28019314 79.91251593 -16.10208065 81.40247021 -28.9765625 80.9921875 C-40.32038156 80.30965019 -49.04062874 75.53916918 -56.61328125 67.26953125 C-65.95208218 55.72291597 -66.51543762 41.88806443 -65.36328125 27.64453125 C-63.37781787 16.3522083 -58.2546714 8.48862526 -49.58203125 1.18359375 C-35.78886516 -8.38420104 -14.30266064 -8.2033442 0 0 Z " fill="#B1A9E5" transform="translate(247.36328125,938.35546875)"/>
<path d="M0 0 C4.9540862 3.37254917 7.06815912 7.05028863 8.44598389 12.94702148 C9.17974032 17.16826726 9.20810408 21.38853801 9.26171875 25.6640625 C9.2810849 26.6293689 9.30045105 27.59467529 9.32040405 28.5892334 C9.37975643 31.64533907 9.42640663 34.70148332 9.47265625 37.7578125 C9.51087689 39.84116145 9.54993095 41.92449528 9.58984375 44.0078125 C9.68542114 49.0910218 9.76961438 54.17430497 9.84765625 59.2578125 C7.55624339 59.31165771 5.26447437 59.35053337 2.97265625 59.3828125 C1.69648437 59.40601563 0.4203125 59.42921875 -0.89453125 59.453125 C-4.15234375 59.2578125 -4.15234375 59.2578125 -6.15234375 57.2578125 C-6.15234375 55.9378125 -6.15234375 54.6178125 -6.15234375 53.2578125 C-6.755625 53.67933594 -7.35890625 54.10085938 -7.98046875 54.53515625 C-9.17929687 55.35693359 -9.17929687 55.35693359 -10.40234375 56.1953125 C-11.19125 56.74058594 -11.98015625 57.28585937 -12.79296875 57.84765625 C-19.32747331 61.75321278 -28.39932864 61.12735635 -35.671875 59.796875 C-41.6684132 57.84771344 -44.44185795 54.27152558 -47.46484375 48.9453125 C-49.12452214 42.45747881 -48.7393221 36.84926026 -45.4140625 30.98046875 C-41.88490982 26.16202809 -36.75398396 24.49656649 -31.15234375 23.2578125 C-27.91139603 22.79231146 -24.66318156 22.48510875 -21.40234375 22.1953125 C-19.71976631 22.04084219 -18.03745702 21.883415 -16.35546875 21.72265625 C-15.61973633 21.6568335 -14.88400391 21.59101074 -14.12597656 21.52319336 C-11.94486558 21.29253203 -11.94486558 21.29253203 -9.15234375 20.2578125 C-7.78232946 17.0611125 -8.32710335 14.55877408 -9.15234375 11.2578125 C-14.67145965 9.30312562 -18.39369779 9.01010588 -24.15234375 10.2578125 C-27.41976529 12.43609353 -27.57815165 14.32233225 -29.15234375 18.2578125 C-34.43234375 18.2578125 -39.71234375 18.2578125 -45.15234375 18.2578125 C-44.77815606 12.08371554 -44.39614188 8.04568732 -40.15234375 3.2578125 C-29.61425443 -4.72689994 -11.8925512 -5.99871189 0 0 Z M-18.02734375 32.0703125 C-18.73503906 32.14056641 -19.44273437 32.21082031 -20.171875 32.28320312 C-24.49537678 32.78640398 -27.71661376 33.52617898 -31.15234375 36.2578125 C-32.40645943 39.61955387 -32.40645943 39.61955387 -32.15234375 43.2578125 C-30.06609036 46.68522879 -28.97791265 47.98262287 -25.15234375 49.2578125 C-19.04744673 49.84482183 -16.02144075 48.72236229 -11.15234375 45.2578125 C-7.60674962 41.12128601 -7.48352009 36.49953453 -7.15234375 31.2578125 C-10.81453334 31.2578125 -14.39473241 31.6546894 -18.02734375 32.0703125 Z " fill="#B1A9E5" transform="translate(551.15234375,958.7421875)"/>
<path d="M0 0 C2 1.12890625 2 1.12890625 3.75 2.3125 C4.8225 3.01375 5.895 3.715 7 4.4375 C15.17687521 12.98605135 15.75 21.66829912 15.75 33.3125 C1.23 33.3125 -13.29 33.3125 -28.25 33.3125 C-26.81923998 41.6167992 -26.81923998 41.6167992 -22.25 47.3125 C-18.27916043 49.56621975 -14.75943346 49.70806434 -10.25 49.3125 C-6.18807521 47.87887949 -4.64614549 47.03708945 -2.55859375 43.21875 C-0.25 40.3125 -0.25 40.3125 3.421875 39.7265625 C4.7824902 39.76619207 6.14249197 39.83741907 7.5 39.9375 C8.19738281 39.96457031 8.89476562 39.99164062 9.61328125 40.01953125 C11.32685705 40.08995217 13.03883302 40.19757087 14.75 40.3125 C13.62184341 47.33214103 11.11060269 51.59976742 5.75 56.3125 C-2.71149996 61.78017316 -11.4184638 62.02037061 -21.25 61.3125 C-27.88039097 59.83192726 -33.61140939 57.39286115 -38.25 52.3125 C-44.72463168 41.30386194 -46.22258917 29.63439281 -43.56640625 17.08203125 C-40.93012713 10.02642945 -36.81684443 4.40762191 -30.0625 0.9375 C-21.52018566 -2.93771163 -8.82857702 -3.76200533 0 0 Z M-25.25 13.3125 C-27.25643742 16.58968112 -28.25 18.46490462 -28.25 22.3125 C-19.01 22.3125 -9.77 22.3125 -0.25 22.3125 C-2.28151728 15.06512886 -2.28151728 15.06512886 -7.25 10.3125 C-13.9870548 8.06681507 -19.83749279 8.41546966 -25.25 13.3125 Z " fill="#B1A9E5" transform="translate(439.25,957.6875)"/>
<path d="M0 0 C1.97265625 1.125 1.97265625 1.125 3.6875 2.3125 C4.76 3.034375 5.8325 3.75625 6.9375 4.5 C14.96636277 12.71133692 15.97867712 21.07656354 16.0065918 32.0222168 C15.88541698 40.21910701 13.97034341 45.75394997 9.5625 52.625 C1.43018653 60.2269452 -7.6407129 61.79505996 -18.40625 61.59375 C-26.55413283 61.00710244 -33.70889759 58.31635972 -39.3125 52.3125 C-45.88896335 43.21934537 -46.97706712 33.34720858 -45.84765625 22.390625 C-44.54225424 14.88218129 -41.07314241 8.36454403 -35.3125 3.3125 C-25.56146218 -2.77496004 -10.78481918 -4.60350285 0 0 Z M-26.5625 15.4375 C-30.86193074 22.5008505 -30.98454084 30.34925514 -29.3125 38.3125 C-27.69624843 42.52547802 -25.45005159 46.29963707 -21.3125 48.3125 C-16.58754667 49.59431902 -12.56049334 49.80148878 -8 47.875 C-4.54693767 45.81419035 -2.50472245 43.70343805 -0.9375 39.98828125 C0.68732942 33.0319803 1.41840994 23.46454702 -2.0625 17 C-4.9773762 13.51834232 -7.01215138 11.74594954 -11.3125 10.3125 C-17.77116705 9.82505343 -21.82240624 10.96074478 -26.5625 15.4375 Z " fill="#B1A9E5" transform="translate(910.3125,957.6875)"/>
<path d="M0 0 C5.61 0 11.22 0 17 0 C21.62 13.86 26.24 27.72 31 42 C32.66378603 39.50432095 33.50734029 37.84541028 34.42041016 35.0793457 C34.68052887 34.29876297 34.94064758 33.51818024 35.20864868 32.71394348 C35.48268524 31.87634995 35.7567218 31.03875641 36.0390625 30.17578125 C36.32478119 29.31438034 36.61049988 28.45297943 36.90487671 27.56547546 C37.81581978 24.81586351 38.7204793 22.06423056 39.625 19.3125 C40.24177458 17.44712904 40.85895717 15.58189294 41.4765625 13.71679688 C42.98911267 9.14608218 44.49603099 4.5735451 46 0 C51.61 0 57.22 0 63 0 C62.31649007 3.41754965 61.66251717 6.21004977 60.49707031 9.41625977 C60.19295227 10.2580629 59.88883423 11.09986603 59.57550049 11.96717834 C59.08179962 13.31567116 59.08179962 13.31567116 58.578125 14.69140625 C58.2362616 15.63249741 57.89439819 16.57358856 57.54217529 17.54319763 C56.81762548 19.53505045 56.09128434 21.52625244 55.36328125 23.5168457 C54.26342207 26.52578062 53.17033308 29.53710878 52.078125 32.54882812 C48.59196452 42.13039876 45.04135478 51.63646737 41 61 C34.73 61 28.46 61 22 61 C17.4107149 50.34071859 13.38091626 39.48990161 9.35961914 28.60620117 C8.17802724 25.41189138 6.98857003 22.22057873 5.79882812 19.02929688 C5.046396 16.99757316 4.2944258 14.96567831 3.54296875 12.93359375 C3.18679977 11.98052841 2.8306308 11.02746307 2.46366882 10.04551697 C2.1394545 9.16352127 1.81524017 8.28152557 1.48120117 7.37280273 C1.19427902 6.59847397 0.90735687 5.8241452 0.61174011 5.02635193 C0 3 0 3 0 0 Z " fill="#B1A9E5" transform="translate(759,957)"/>
<path d="M0 0 C5.28 0 10.56 0 16 0 C16 5.94 16 11.88 16 18 C20.29 18 24.58 18 29 18 C29 21.96 29 25.92 29 30 C24.71 30 20.42 30 16 30 C16.495 48.315 16.495 48.315 17 67 C20.96 67.33 24.92 67.66 29 68 C29 71.63 29 75.26 29 79 C25.95778935 79.08132642 22.9177762 79.14065374 19.875 79.1875 C19.0190625 79.21263672 18.163125 79.23777344 17.28125 79.26367188 C12.07114498 79.32378847 8.51073042 78.91538601 4 76 C-0.36408097 71.18446238 -0.13588181 66.379175 -0.09765625 60.17578125 C-0.0962413 59.31438034 -0.09482635 58.45297943 -0.09336853 57.56547546 C-0.0877714 54.81444831 -0.07521946 52.06350256 -0.0625 49.3125 C-0.05748463 47.4472668 -0.05292179 45.58203233 -0.04882812 43.71679688 C-0.03780292 39.14449989 -0.02054027 34.57226375 0 30 C-3.3 30 -6.6 30 -10 30 C-10 26.04 -10 22.08 -10 18 C-6.7 18 -3.4 18 0 18 C0 12.06 0 6.12 0 0 Z " fill="#B1A9E5" transform="translate(616,939)"/>
<path d="M0 0 C0 4.62 0 9.24 0 14 C-1.711875 14.103125 -3.42375 14.20625 -5.1875 14.3125 C-9.52899841 14.72438575 -12.62855402 15.03721414 -16 18 C-20.53638291 23.9224999 -21.14277267 28.32440244 -21.31640625 35.609375 C-21.33718735 36.33618469 -21.35796844 37.06299438 -21.37937927 37.81182861 C-21.44455512 40.12445991 -21.5036104 42.43720093 -21.5625 44.75 C-21.60571566 46.32162575 -21.64933092 47.89324056 -21.69335938 49.46484375 C-21.80095277 53.3097852 -21.90026285 57.15481465 -22 61 C-27.28 61 -32.56 61 -38 61 C-38 40.87 -38 20.74 -38 0 C-33.05 0 -28.1 0 -23 0 C-22.67 2.64 -22.34 5.28 -22 8 C-21.67 7.2575 -21.34 6.515 -21 5.75 C-15.98485881 -1.14581913 -7.88790446 -2.62930149 0 0 Z " fill="#B1A9E5" transform="translate(350,957)"/>
<path d="M0 0 C5.28 0 10.56 0 16 0 C16 20.13 16 40.26 16 61 C10.72 61 5.44 61 0 61 C0 40.87 0 20.74 0 0 Z " fill="#B1A9E5" transform="translate(695,957)"/>
<path d="M0 0 C2.4375 1.625 2.4375 1.625 4 4 C4.44672088 7.57376708 4.38696244 10.01969514 3.0625 13.375 C-0.25735746 15.99064527 -3.84967679 16.20387553 -8 16 C-11.05147152 14.66498121 -12.51186717 13.97626566 -14 11 C-14.57801822 4.75740319 -14.57801822 4.75740319 -12.1875 1.625 C-8.00041704 -1.48540449 -4.9414024 -1.12698651 0 0 Z " fill="#B1A9E5" transform="translate(708,933)"/>
</svg>
